PathFileType	4	(X/Y/Z)	/Users/itak/Documents/Research/Walk-IL/dataset/trc/00157_00007.trc
DataRate	CameraRate	NumFrames	NumMarkers	Units	OrigDataRate	OrigDataStartFrame	OrigNumFrames
100.000000	100.000000	4	54	mm	100.000000	458	611
Frame#	Time	RPSI			LPSI			L3			STRN			T10			C7			CLAV			RBAK			LBAK			LSHO			LUPA			LAEL			LAOL			LWTS			LWPS			LFRA			LIFD			LHPS			LHTS			RSHO			RUPA			RAEL			RAOL			RWTS			RWPS			RFRA			RIFD			RHTS			RHPS			RBHD			LFHD			RFHD			LBHD			LHIP			RHIP			RASI			LASI			LKNE			LTHI			LANK			LTIP			LTOE			LMT1			LMT5			LHEE			RKNE			RTHI			RANK			RTIP			RTOE			RMT1			RMT5			RHEE			*53			
		X1	Y1	Z1	X2	Y2	Z2	X3	Y3	Z3	X4	Y4	Z4	X5	Y5	Z5	X6	Y6	Z6	X7	Y7	Z7	X8	Y8	Z8	X9	Y9	Z9	X10	Y10	Z10	X11	Y11	Z11	X12	Y12	Z12	X13	Y13	Z13	X14	Y14	Z14	X15	Y15	Z15	X16	Y16	Z16	X17	Y17	Z17	X18	Y18	Z18	X19	Y19	Z19	X20	Y20	Z20	X21	Y21	Z21	X22	Y22	Z22	X23	Y23	Z23	X24	Y24	Z24	X25	Y25	Z25	X26	Y26	Z26	X27	Y27	Z27	X28	Y28	Z28	X29	Y29	Z29	X30	Y30	Z30	X31	Y31	Z31	X32	Y32	Z32	X33	Y33	Z33	X34	Y34	Z34	X35	Y35	Z35	X36	Y36	Z36	X37	Y37	Z37	X38	Y38	Z38	X39	Y39	Z39	X40	Y40	Z40	X41	Y41	Z41	X42	Y42	Z42	X43	Y43	Z43	X44	Y44	Z44	X45	Y45	Z45	X46	Y46	Z46	X47	Y47	Z47	X48	Y48	Z48	X49	Y49	Z49	X50	Y50	Z50	X51	Y51	Z51	X52	Y52	Z52	X53	Y53	Z53	X54	Y54	Z54	

459	4.58	468.6216125488281	1115.207885742188	243.5404968261719	603.43310546875	1124.53955078125	244.8316802978516	537.5634155273438	1154.63427734375	236.2886352539062	537.988037109375	1362.909545898438	450.4282531738281	535.6090087890625	1303.627319335938	196.6273498535156	547.858642578125	1597.270263671875	219.7621154785156	542.8145141601562	1495.60595703125	407.7259826660156	459.2139892578125	1411.042602539062	175.1981658935547	649.4910278320312	1577.38916015625	212.5549163818359	717.4171142578125	1568.805419921875	298.9105529785156	795.4961547851562	1441.752685546875	284.5962219238281	837.2277221679688	1228.5224609375	316.0348815917969	779.2781372070312	1203.489135742188	253.7345275878906	822.8579711914062	985.441162109375	451.9008178710938	847.1533813476562	949.908935546875	373.6209106445312	852.6517944335938	1116.151245117188	346.6328125	820.8702392578125	796.9476318359375	496.4639587402344	855.153564453125	880.4598388671875	413.759521484375	841.9434814453125	901.4962158203125	478.6870422363281	368.7958984375	1582.10986328125	278.6343078613281	302.8865356445312	1509.289672851562	266.1352844238281	267.4351501464844	1216.877075195312	273.1725769042969	363.0830688476562	1210.96044921875	260.0572814941406	286.1299438476562	984.8765869140625	435.14453125	245.6830139160156	963.9777221679688	363.8224182128906	250.7342376708984	1145.918823242188	303.4931640625	298.2679748535156	790.801513671875	471.9172973632812	279.5630493164062	878.46240234375	471.5241394042969	242.7327728271484	866.7998046875	407.8339233398438	456.6905517578125	1772.753784179688	276.8783569335938	629.0081787109375	1840.918334960938	398.7967224121094	505.0432739257812	1847.1796875	434.1716003417969	585.7649536132812	1770.804077148438	234.9162139892578	715.6674194335938	1044.34912109375	338.9853210449219	365.2941589355469	1019.214538574219	377.5552368164062	406.9400024414062	1100.52587890625	451.9632568359375	672.19775390625	1108.179443359375	446.7116394042969	691.9644165039062	544.4729614257812	422.1822509765625	717.6492919921875	686.3353271484375	380.9819030761719	668.9102783203125	29.16251564025879	408.7466735839844	710.4524536132812	287.3688049316406	368.2789001464844	602.7412109375	44.36929321289062	633.205322265625	572.3867797851562	50.24897003173828	554.0003051757812	689.4307250976562	31.84696388244629	533.7090454101562	610.2463989257812	33.24403381347656	337.724365234375	375.547607421875	531.986572265625	454.1335754394531	364.7887268066406	812.4906616210938	425.892578125	298.5963134765625	159.6698455810547	72.57176971435547	342.8302307128906	425.7849731445312	367.6525573730469	407.3228149414062	42.5001335144043	228.4756927490234	437.8782958984375	81.2320556640625	171.7473754882812	318.6011047363281	60.50982284545898	158.1985015869141	328.4988708496094	212.2506713867188	28.89350700378418	nan	nan	nan	
460	4.59	470.7489013671875	1115.376586914062	247.2702178955078	605.6890258789062	1124.906860351562	248.7236175537109	539.8755493164062	1155.244750976562	240.2081909179688	539.8662109375	1363.243774414062	454.7259826660156	538.70947265625	1304.394409179688	200.0310363769531	551.144287109375	1597.904296875	224.4208221435547	544.8272705078125	1496.015869140625	412.2868957519531	462.6250610351562	1411.662109375	179.0953063964844	652.7557373046875	1577.9873046875	217.8546447753906	720.049560546875	1569.440551757812	304.6055908203125	798.495361328125	1442.530395507812	291.5316467285156	840.697265625	1229.677124023438	325.1102294921875	783.54150390625	1203.982177734375	262.37939453125	825.9420166015625	987.3085327148438	462.2780456542969	851.2335205078125	951.4749145507812	384.4619445800781	856.27294921875	1117.5859375	356.5848388671875	824.3783569335938	799.0453491210938	507.7707214355469	859.1200561523438	882.2882080078125	425.0625610351562	845.0523681640625	903.5785522460938	489.7288513183594	371.601806640625	1582.569702148438	282.282470703125	305.9590759277344	1509.65869140625	269.1083984375	271.4244995117188	1217.066772460938	274.38525390625	367.2814331054688	1211.53564453125	262.6932983398438	288.4850463867188	985.6514282226562	437.3139343261719	249.4274291992188	964.1810913085938	365.4778747558594	254.4032745361328	1146.01708984375	304.4785766601562	300.7929992675781	791.9432373046875	475.1479187011719	281.7960815429688	879.420654296875	474.1750793457031	246.1312408447266	867.1759643554688	409.87353515625	459.2732543945312	1773.154296875	281.7655029296875	631.6785888671875	1841.243774414062	403.6361083984375	507.7797241210938	1847.420288085938	439.0389404296875	588.3494873046875	1771.189331054688	239.7484130859375	717.56591796875	1044.329223632812	343.1460571289062	366.8770141601562	1019.976379394531	381.8060607910156	408.7933654785156	1101.010009765625	455.5966186523438	674.0833129882812	1108.31396484375	450.9034118652344	692.910888671875	544.324462890625	423.9252319335938	718.8027954101562	686.28076171875	383.4739074707031	668.9041137695312	29.20524597167969	408.7945861816406	710.954345703125	287.5158081054688	369.1705017089844	602.659423828125	44.21335601806641	633.2861328125	572.3380126953125	50.16035079956055	554.0350952148438	689.424072265625	31.8607120513916	533.7236328125	610.282470703125	33.31766891479492	337.7245178222656	377.9971313476562	533.3368530273438	462.2506713867188	366.7407531738281	813.5377807617188	431.1796264648438	301.9533386230469	157.5783386230469	84.06540679931641	345.6012573242188	426.5634155273438	376.4560852050781	409.5403442382812	43.25939559936523	243.2456207275391	440.3421325683594	80.79387664794922	185.9754943847656	320.8988342285156	60.63746643066406	172.3002471923828	332.1051025390625	209.1659240722656	39.43019485473633	nan	nan	nan	
461	4.600000000000001	472.7705078125	1115.550048828125	250.9091186523438	607.8251953125	1125.230102539062	252.5222015380859	542.0968017578125	1155.800170898438	243.9986114501953	541.6756591796875	1363.542236328125	458.92138671875	541.6068115234375	1305.144165039062	203.4485015869141	554.331298828125	1598.509033203125	228.9955444335938	546.77294921875	1496.3876953125	416.7504577636719	465.9281311035156	1412.262084960938	182.9120330810547	655.9169311523438	1578.55517578125	223.0578308105469	722.6170654296875	1570.055419921875	310.1455383300781	801.3668823242188	1443.244995117188	298.3041076660156	843.972900390625	1230.770629882812	333.9419860839844	787.5468139648438	1204.43017578125	270.8416748046875	828.8526611328125	989.15869140625	472.455078125	855.0435180664062	952.9977416992188	395.1015625	859.6734008789062	1118.959594726562	366.2918090820312	827.7459106445312	801.1604614257812	518.9505615234375	862.8302612304688	884.0828247070312	436.1733703613281	847.9835205078125	905.6552124023438	500.5773620605469	374.3273315429688	1583.001708984375	285.8735656738281	308.944580078125	1509.997192382812	272.0411071777344	275.3297119140625	1217.237060546875	275.6373291015625	371.3670043945312	1212.10791015625	265.2615356445312	290.8743591308594	986.3494873046875	439.4322814941406	253.14208984375	964.3616943359375	367.1341552734375	258.0275573730469	1146.108276367188	305.5204772949219	303.3378295898438	793.0432739257812	478.2685241699219	284.0882263183594	880.32568359375	476.7539978027344	249.5469512939453	867.524658203125	411.9198913574219	461.7869873046875	1773.533447265625	286.6002502441406	634.2975463867188	1841.522094726562	408.397705078125	510.4562683105469	1847.6611328125	443.8353576660156	590.8545532226562	1771.535278320312	244.5037536621094	719.3576049804688	1044.228515625	347.2160949707031	367.9499816894531	1020.835815429688	385.8014221191406	410.5650939941406	1101.473388671875	459.1458435058594	675.90625	1108.415771484375	454.973388671875	693.8046264648438	544.1595458984375	425.6311340332031	719.9303588867188	686.2103881835938	385.8943481445312	668.8992309570312	29.25426292419434	408.8465270996094	711.434814453125	287.6985778808594	370.0818786621094	602.570556640625	44.0496826171875	633.3775024414062	572.2852783203125	50.06828308105469	554.0758056640625	689.4208984375	31.8761157989502	533.74072265625	610.3394775390625	33.44162750244141	337.7095642089844	380.3512268066406	534.6824951171875	470.0648193359375	368.5826110839844	814.6183471679688	436.4325866699219	305.5118713378906	154.9454040527344	95.89210510253906	348.3516235351562	427.19580078125	385.08203125	411.5379028320312	43.94037628173828	258.8350830078125	442.7236328125	79.81874847412109	200.8952789306641	323.1352844238281	60.60469055175781	187.0751800537109	336.1621704101562	205.2308044433594	50.19438552856445	nan	nan	nan	
462	4.61	474.688720703125	1115.729248046875	254.4685211181641	609.8325805664062	1125.502563476562	256.2410583496094	544.2225341796875	1156.285888671875	247.6755523681641	543.4186401367188	1363.804443359375	463.0237121582031	544.3251342773438	1305.855712890625	206.9122619628906	557.4163818359375	1599.081298828125	233.4921722412109	548.6575927734375	1496.71875	421.1172180175781	469.1309814453125	1412.841674804688	186.6438751220703	658.979248046875	1579.093017578125	228.1668243408203	725.1261596679688	1570.644775390625	315.5345458984375	804.1142578125	1443.892578125	304.9138488769531	847.0606079101562	1231.793334960938	342.5203857421875	791.2996215820312	1204.82666015625	279.1024169921875	831.5772705078125	990.9881591796875	482.4241638183594	858.5828247070312	954.4701538085938	405.5337829589844	862.855712890625	1120.263793945312	375.7429504394531	830.9315185546875	803.2879028320312	530.0064086914062	866.2816162109375	885.8403930664062	447.0904541015625	850.7293701171875	907.7254028320312	511.2301940917969	376.9703369140625	1583.399047851562	289.40478515625	311.835693359375	1510.300048828125	274.9336242675781	279.1250915527344	1217.385498046875	276.9571838378906	375.3138122558594	1212.6630859375	267.77099609375	293.292236328125	986.9542236328125	441.4987182617188	256.8003845214844	964.5121459960938	368.8002624511719	261.5940856933594	1146.187133789062	306.6481628417969	305.9290466308594	794.0582275390625	481.2828063964844	286.4397583007812	881.1531372070312	479.2473449707031	252.9569244384766	867.8364868164062	413.9658203125	464.2302551269531	1773.8896484375	291.3838806152344	636.8622436523438	1841.75439453125	413.0794372558594	513.0713500976562	1847.908569335938	448.5647888183594	593.2761840820312	1771.833862304688	249.1858062744141	721.0516967773438	1044.073486328125	351.2130737304688	368.454345703125	1021.803894042969	389.5316162109375	412.2724914550781	1101.918212890625	462.6300354003906	677.68017578125	1108.48388671875	458.9212341308594	694.647216796875	543.9791870117188	427.3095397949219	721.029296875	686.131591796875	388.2562866210938	668.89306640625	29.31090545654297	408.9019775390625	711.89990234375	287.9177551269531	371.0204467773438	602.4692993164062	43.87805557250977	633.489990234375	572.2260131835938	49.97100448608398	554.123046875	689.4202270507812	31.89217758178711	533.7606811523438	610.4252319335938	33.63698196411133	337.6656494140625	382.6114196777344	536.00732421875	477.5767211914062	370.3168334960938	815.694091796875	441.6593322753906	309.2527465820312	151.8317565917969	108.0388641357422	351.0755920410156	427.6848449707031	393.5184631347656	413.2481994628906	44.52767562866211	275.1805114746094	444.97802734375	78.35077667236328	216.4973907470703	325.2559509277344	60.44872283935547	202.4328155517578	340.7028198242188	200.4669342041016	61.19594192504883	nan	nan	nan	
